<svg version="1.2" xmlns="http://www.w3.org/2000/svg" viewBox="0 0 800 300" width="800" height="300">
	<title>logo_web</title>
	<style>
		.s0 { fill: #10069f } 
	</style>
	<path id="kalv." class="s0" aria-label="kalv."  d="m18.8 258h65.4v-66.4l41 66.4h78.2l-63.7-82.6 62.2-83.8h-76.1l-41.6 62.3v-114.2h-65.5zm190.6-83.2c0 53.7 30.4 85.3 68.8 85.3 22.1 0 38-9.8 46-24.8v22.7h65.2v-166.4h-65.2v22.7c-8-15-23.9-24.7-46-24.7-38.4 0-68.8 31.5-68.8 85.2zm114.8 0c0 18.3-10.6 28-24.2 28-13.6 0-24.2-9.7-24.2-28 0-18.3 10.6-28 24.2-28 13.6 0 24.2 9.7 24.2 28zm94.7 83.2h65.5v-218.3h-65.5zm82.9-166.4l55.4 166.4h81.7l55.5-166.4h-69.6l-26.6 104.2-26.8-104.2zm279.9 136.6c0-18.3-14.4-32.7-37.4-32.7-23.3 0-37.8 14.4-37.8 32.7 0 18 14.5 32.2 37.8 32.2 23 0 37.4-14.2 37.4-32.2z"/>
</svg>